<svg id="icon--magnifying-glass" class="icon--magnifying-glass" data-name="Layer 1" xmlns="http://www.w3.org/2000/svg" viewBox="0 0 283.46 283.46">
    <path class="icon-element"
          d="M172.38,135.22a70.11,70.11,0,0,0,6.24-20.35,71.38,71.38,0,0,0-.52-23.78,70.35,70.35,0,0,0-6.68-19.21,71.23,71.23,0,0,0-33-31.64,70.36,70.36,0,0,0-18.26-5.66,72.64,72.64,0,0,0-10.3-.95H108a73,73,0,0,0-10.34.82,70.37,70.37,0,0,0-18.35,5.44A70.86,70.86,0,0,0,38.22,114a70.39,70.39,0,0,0,6,20.46,71.21,71.21,0,0,0,36.7,35.38,71,71,0,0,0,91.47-34.61Z"/>
    <path d="M270.15,258.7a12.22,12.22,0,0,0-1.79-3.66,15.23,15.23,0,0,0-1.32-1.57l-86.3-86.29A95.66,95.66,0,0,0,123,9.94,98.47,98.47,0,0,0,109.1,8.83l-2.47,0a98.12,98.12,0,0,0-13.89,1.28,95.19,95.19,0,0,0-24.69,7.65A96.24,96.24,0,0,0,22.5,62.51a95.19,95.19,0,0,0-8.3,25.67,95.59,95.59,0,0,0,148,95.49L249.51,271a12.51,12.51,0,0,0,1,.91,12.23,12.23,0,0,0,3.56,2,12.5,12.5,0,0,0,4.7.72,12.32,12.32,0,0,0,4.62-1.1,12.49,12.49,0,0,0,3.38-2.28,12.15,12.15,0,0,0,2.13-2.66A12.44,12.44,0,0,0,270.15,258.7ZM135.26,170.16A70.81,70.81,0,0,1,59,155.23a71.59,71.59,0,0,1-14.76-20.78,70.39,70.39,0,0,1-6-20.46A71,71,0,0,1,79.33,39.88a70.37,70.37,0,0,1,18.35-5.44A73,73,0,0,1,108,33.62h1.84a72.64,72.64,0,0,1,10.3.95,70.36,70.36,0,0,1,18.26,5.66,71.23,71.23,0,0,1,33,31.64,70.35,70.35,0,0,1,6.68,19.21,71.38,71.38,0,0,1,.52,23.78,70.11,70.11,0,0,1-6.24,20.35,71.17,71.17,0,0,1-37.12,34.94Z"/>
</svg>